# xmcd
#
# Track frame offsets:
#	150
#	12111
#	23014
#	40336
#	54644
#	69379
#	83956
#	100830
#	117433
#	131698
#	137856
#	151701
#	174740
#	191641
#	203506
#	219420
#
# Disc length: 3121 seconds
#
# Revision: 1
# Processed by: cddbd v1.5.1PL2 Copyright (c) Steve Scherf et al.
# Submitted via: audiograbber 1.80.04
#
DISCID=d80c2f10
DTITLE=Disk 2 - Country Christmas
DYEAR=2005
DGENRE=Christmas
TTITLE0=Merle Haggard - If We Make It Through December
TTITLE1=Willie Nelson - Pretty Paper
TTITLE2=Dolly Parton - Hard Candy Christmas
TTITLE3=Don Williams - O Come All Ye Faithful
TTITLE4=John Anderson - The Christmas Song
TTITLE5=Jim Reeves - White Christmas
TTITLE6=Lorrie Morgan - My Favorite Things
TTITLE7=Clint Black - Christmas For Every Boy and Girl
TTITLE8=Gene Autry - Rudolph The Red-Nosed Reindeer
TTITLE9=Chet Atkins - God Rest Ye Merry Gentlemen
TTITLE10=BlackHawk - We Three Kings
TTITLE11=Lee Roy Parnell - Please Come Home For Christmas
TTITLE12=Restless Heart - Little Drummer Boy
TTITLE13=Tracy Byrd - Merry Christmas From Texas, Y'all
TTITLE14=Charlie Daniels - Cowboy's Christmas Gift
TTITLE15=Marty Robbins - A Christmas Prayer
EXTD=
EXTT0=
EXTT1=
EXTT2=
EXTT3=
EXTT4=
EXTT5=
EXTT6=
EXTT7=
EXTT8=
EXTT9=
EXTT10=
EXTT11=
EXTT12=
EXTT13=
EXTT14=
EXTT15=
PLAYORDER=
